<?xml version="1.0" standalone="no"?>
<!DOCTYPE svg PUBLIC "-//W3C//DTD SVG 20010904//EN"
 "http://www.w3.org/TR/2001/REC-SVG-20010904/DTD/svg10.dtd">
<svg version="1.0" xmlns="http://www.w3.org/2000/svg"
 width="2500.000000pt" height="2500.000000pt" viewBox="0 0 2500.000000 2500.000000"
 preserveAspectRatio="xMidYMid meet">
<metadata>
Created by potrace 1.11, written by Peter Selinger 2001-2013
</metadata>
<g transform="translate(0.000000,2500.000000) scale(0.100000,-0.100000)"
fill="#000000" stroke="none">
<path d="M7179 23958 c-1 -2 -2 -2532 -3 -5623 l-2 -5620 30 -45 c16 -25 50
-74 76 -110 25 -36 93 -132 151 -215 57 -82 107 -154 112 -160 4 -5 80 -113
168 -240 88 -126 167 -239 174 -250 8 -11 62 -87 120 -170 57 -82 109 -157
115 -165 305 -432 310 -441 296 -474 -13 -30 -261 -562 -333 -716 -20 -41 -50
-106 -68 -145 -75 -162 -95 -205 -135 -290 -23 -49 -55 -117 -70 -150 -15 -33
-47 -100 -70 -150 -23 -49 -55 -117 -70 -150 -15 -33 -47 -100 -70 -150 -23
-49 -68 -146 -100 -215 -32 -69 -77 -165 -100 -215 -23 -49 -90 -191 -147
-315 -58 -124 -121 -259 -140 -300 -20 -41 -48 -102 -63 -135 -15 -33 -43 -94
-63 -135 -19 -41 -53 -113 -75 -160 -22 -47 -55 -119 -75 -160 -36 -78 -83
-177 -148 -318 -22 -46 -37 -87 -34 -91 2 -4 623 -8 1379 -8 l1374 0 43 91
c23 50 43 93 44 96 3 8 49 108 109 234 31 65 56 120 56 121 0 2 34 74 75 160
41 87 75 159 75 160 0 2 28 64 63 137 35 73 96 206 137 295 41 90 77 163 80
163 3 0 43 -55 90 -123 46 -67 88 -126 93 -132 4 -5 82 -116 172 -245 90 -129
173 -248 185 -265 12 -16 125 -178 251 -358 193 -275 228 -331 219 -347 -5
-10 -74 -110 -153 -222 -78 -112 -150 -216 -160 -231 -10 -16 -25 -36 -32 -45
-13 -15 -255 -361 -485 -692 -48 -69 -138 -197 -200 -285 -62 -88 -147 -209
-188 -270 -42 -60 -78 -112 -81 -115 -4 -3 -18 -23 -33 -45 -38 -57 -305 -438
-316 -450 -5 -6 -17 -24 -28 -40 -10 -16 -82 -120 -159 -230 -77 -110 -151
-217 -165 -237 -14 -21 -28 -38 -32 -38 -5 0 -8 -5 -8 -10 0 -6 -28 -50 -63
-98 -62 -86 -93 -131 -112 -160 -5 -9 -14 -21 -18 -26 -4 -6 -32 -45 -61 -86
-28 -41 -84 -120 -123 -175 -38 -55 -144 -206 -235 -336 -91 -130 -174 -249
-186 -265 -11 -16 -105 -150 -209 -299 -104 -148 -205 -292 -224 -320 -19 -27
-57 -81 -84 -120 -27 -38 -63 -90 -79 -114 -17 -23 -35 -50 -41 -60 -5 -9 -13
-18 -16 -21 -4 -4 -118 -166 -229 -326 -19 -28 -72 -104 -118 -169 -46 -65
-80 -120 -78 -123 8 -7 2741 -7 2753 1 6 4 32 39 59 79 27 40 51 75 54 78 3 3
53 73 110 155 58 83 119 170 137 195 17 25 66 95 108 155 42 61 99 142 126
180 27 39 66 95 86 125 21 30 40 57 43 60 4 3 40 54 81 113 41 59 100 145 132
190 32 45 70 100 85 122 15 22 68 98 119 170 50 71 106 150 123 175 17 25 76
108 130 185 54 77 133 190 175 250 42 61 110 157 150 215 41 58 101 143 133
190 158 227 634 907 645 920 7 8 23 32 36 53 12 20 24 37 25 37 2 0 16 -19 32
-42 16 -24 88 -126 159 -228 137 -195 161 -229 185 -266 8 -12 62 -89 120
-171 108 -153 149 -211 245 -348 30 -44 94 -134 140 -200 46 -66 101 -145 122
-175 20 -30 42 -60 48 -67 5 -6 35 -48 65 -92 47 -69 194 -280 326 -466 19
-27 80 -115 136 -195 189 -272 212 -305 221 -315 9 -11 196 -279 251 -360 19
-27 61 -88 95 -135 33 -47 89 -128 126 -180 36 -52 116 -167 178 -254 l112
-159 1373 0 c754 0 1375 2 1378 5 4 5 -51 95 -66 108 -3 3 -42 57 -85 120 -43
63 -96 140 -118 170 -21 30 -82 117 -135 192 -53 75 -178 253 -277 395 -99
142 -183 263 -188 268 -4 6 -80 113 -167 240 -88 126 -167 238 -175 250 -20
28 -269 383 -336 480 -57 82 -822 1174 -879 1255 -72 103 -260 371 -316 451
-129 186 -494 708 -584 834 -52 74 -194 277 -315 451 -121 173 -235 336 -253
360 l-34 45 25 38 c13 20 84 122 157 226 73 105 152 217 175 250 23 33 95 137
161 230 66 94 145 206 175 250 31 44 69 99 85 121 16 23 76 109 134 193 58 83
107 151 110 151 3 0 43 -82 90 -183 46 -100 113 -242 147 -315 35 -73 63 -135
63 -137 0 -1 34 -73 75 -159 41 -86 75 -158 75 -160 0 -2 24 -55 54 -117 76
-161 140 -299 161 -346 l17 -40 1384 0 c994 0 1381 3 1375 11 -4 6 -15 29 -24
51 -8 22 -41 94 -72 159 -31 65 -65 140 -77 165 -11 25 -47 102 -79 170 -33
68 -59 125 -59 126 0 2 -33 73 -74 158 -41 86 -77 166 -81 179 -4 12 -11 28
-15 33 -4 6 -33 64 -63 130 -30 66 -79 170 -107 230 -29 61 -65 137 -80 170
-132 284 -237 512 -265 570 -18 39 -50 106 -70 150 -21 44 -55 118 -77 165
-22 47 -53 112 -68 145 -15 33 -46 98 -68 145 -21 47 -97 209 -167 360 -70
151 -154 331 -186 399 -33 68 -59 125 -59 127 0 1 -20 44 -44 95 -47 96 -47
99 -9 148 7 9 127 180 267 381 141 201 262 374 270 385 8 11 102 146 210 300
107 154 199 285 204 291 5 6 21 28 35 50 29 44 211 303 224 319 5 6 8 2541 8
5635 l0 5625 -361 3 -361 2 -45 -42 c-25 -24 -94 -88 -153 -143 -59 -55 -126
-118 -150 -140 -23 -22 -95 -89 -160 -150 -65 -60 -133 -123 -151 -140 -17
-16 -82 -77 -144 -135 -62 -58 -125 -116 -139 -129 -14 -13 -58 -53 -97 -90
-129 -121 -329 -308 -359 -335 -34 -32 -232 -216 -280 -261 -17 -16 -89 -84
-161 -150 -71 -66 -141 -131 -155 -145 -14 -14 -77 -72 -139 -130 -62 -58
-127 -118 -144 -135 -18 -16 -86 -79 -151 -140 -65 -60 -128 -119 -139 -130
-12 -11 -80 -74 -151 -140 -71 -66 -142 -131 -156 -145 -33 -31 -253 -238
-295 -276 -17 -16 -82 -76 -144 -134 -62 -58 -148 -137 -189 -176 -79 -75 -92
-86 -259 -242 -56 -52 -122 -114 -146 -136 -24 -23 -97 -90 -162 -151 -65 -60
-134 -125 -154 -143 -19 -19 -82 -77 -139 -130 -57 -54 -131 -123 -165 -154
-33 -32 -65 -58 -71 -58 -5 0 -44 33 -86 73 -42 39 -123 115 -179 167 -130
120 -169 157 -250 233 -36 34 -121 114 -189 177 -68 63 -133 124 -145 135 -12
11 -86 81 -166 155 -80 74 -150 139 -156 145 -6 5 -62 57 -124 115 -62 58
-129 121 -150 140 -62 59 -273 255 -310 290 -121 112 -168 156 -279 259 -68
64 -138 130 -156 146 -99 92 -299 279 -360 336 -38 36 -99 92 -134 125 -35 32
-74 68 -85 79 -22 20 -260 243 -322 300 -17 17 -80 75 -139 130 -59 55 -124
116 -145 135 -20 19 -84 78 -141 131 -57 53 -125 116 -150 140 -57 54 -253
237 -294 275 -28 26 -213 198 -294 274 -21 19 -91 85 -156 145 -65 61 -133
125 -152 143 l-33 32 -360 0 c-198 0 -361 -1 -361 -2z m2306 -4339 c44 -42
111 -105 149 -140 38 -35 98 -93 135 -127 36 -35 98 -94 136 -130 39 -36 135
-127 215 -202 80 -76 161 -153 181 -171 20 -19 98 -92 174 -164 76 -71 156
-147 179 -169 47 -44 126 -119 346 -327 85 -81 175 -166 200 -189 25 -23 112
-106 194 -183 82 -78 156 -147 164 -153 12 -9 10 -20 -16 -75 -16 -35 -94
-201 -172 -369 -78 -168 -154 -330 -167 -360 -14 -30 -54 -115 -89 -189 -35
-73 -64 -135 -64 -137 0 -1 -29 -64 -65 -139 -36 -76 -65 -138 -65 -140 0 -1
-23 -52 -51 -111 -63 -135 -182 -389 -219 -469 -15 -33 -46 -98 -68 -145 -73
-155 -124 -264 -144 -310 -11 -25 -43 -92 -70 -150 -28 -58 -61 -127 -73 -155
-13 -27 -42 -90 -65 -140 -23 -49 -55 -117 -70 -150 -15 -33 -92 -197 -170
-365 -78 -168 -158 -339 -177 -380 -20 -41 -53 -113 -75 -160 -62 -131 -106
-226 -198 -425 -18 -38 -57 -121 -86 -183 -30 -63 -54 -117 -54 -120 0 -4 -7
-15 -14 -25 -12 -15 -14 499 -14 3368 0 3141 1 3385 17 3373 9 -7 52 -47 96
-89z m6132 -3286 l0 -3388 -41 85 c-23 47 -58 121 -78 165 -20 44 -60 130 -88
190 -29 61 -111 236 -182 390 -72 154 -157 335 -189 403 -33 68 -59 125 -59
128 0 2 -29 65 -65 140 -36 75 -65 138 -65 139 0 2 -31 69 -70 150 -38 81 -70
148 -70 150 0 1 -25 56 -56 121 -113 240 -124 263 -153 327 -16 35 -47 102
-69 148 -22 46 -51 109 -65 139 -13 30 -47 102 -74 160 -28 58 -76 161 -108
230 -61 133 -95 206 -181 388 -30 63 -54 115 -54 117 0 1 -26 58 -59 126 -32
68 -70 149 -84 179 -14 30 -44 96 -67 145 -23 50 -55 117 -70 150 -15 33 -46
98 -68 145 -22 47 -51 110 -65 140 -35 78 -98 212 -108 232 -9 16 10 36 157
174 23 22 106 100 185 175 79 75 164 156 189 179 25 23 104 97 175 165 72 67
153 144 180 169 28 26 79 75 115 109 55 52 263 249 425 402 23 22 104 99 180
170 76 72 157 148 180 170 23 22 105 99 181 171 194 183 217 204 219 204 1 0
2 -1524 2 -3387z m-3027 -2828 c45 -99 103 -223 128 -275 24 -52 57 -122 72
-155 15 -33 44 -96 64 -139 21 -43 97 -208 171 -365 73 -157 158 -339 189
-405 31 -65 56 -119 56 -121 0 -1 26 -58 59 -126 32 -68 70 -149 84 -179 13
-30 42 -91 62 -135 21 -44 52 -111 70 -150 74 -159 109 -234 142 -305 80 -168
103 -221 103 -233 0 -6 -54 -88 -120 -182 -108 -152 -244 -347 -323 -460 -47
-68 -169 -242 -516 -738 -329 -469 -334 -476 -351 -454 -15 19 -360 511 -481
686 -24 35 -56 80 -70 100 -79 111 -305 434 -435 621 -83 118 -183 261 -222
317 -40 56 -72 107 -72 112 0 5 38 89 84 188 46 98 93 201 106 228 12 28 51
110 86 184 35 73 64 135 64 136 0 2 23 52 51 111 52 110 88 188 139 299 15 33
49 105 75 160 26 55 63 134 82 175 20 41 48 102 63 135 15 33 44 95 64 138 20
42 52 112 72 155 20 42 49 104 64 137 15 33 43 94 63 135 19 41 53 113 75 160
67 144 112 241 160 343 25 53 49 94 52 90 4 -5 44 -89 90 -188z"/>
</g>
</svg>
