<svg viewBox="0 0 160.1 20.11" xmlns="http://www.w3.org/2000/svg" xmlns:xlink="http://www.w3.org/1999/xlink"><clipPath id="a"><path d="m0 0h160.1v20.11h-160.1z"/></clipPath><path d="m4.07 11.66 1.16-2.5 1.17 2.5-1.17 1.66zm-1.63-7.88 2 1.86-.44.88-1.56 3.34zm4 2.74-.41-.88 1.97-1.86v6.08zm2.9-6.52-4.11 3.84-4.11-3.84h-.65v10.06l1.13 1.6-1.6 3.43h2.47l.61-1.31.92 1.31-3.53 5h2.47l2.29-3.26 2.29 3.26h2.48l-3.52-5 .92-1.31.6 1.31h2.47l-1.6-3.43 1.13-1.6v-10.06z" fill="#b00"/><g clip-path="url(#a)"><path d="m152.75 19.82v-8.41h3.81v8.41h3.54v-19.58h-3.54v8.26h-3.81v-8.26h-3.54v19.58zm-9.65-3.33a1.74 1.74 0 0 1 -1.59.77 1.62 1.62 0 0 1 -1.69-1.19 11.1 11.1 0 0 1 -.29-3v-6a9 9 0 0 1 .41-3.33 1.5 1.5 0 0 1 1.5-.89 1.64 1.64 0 0 1 1.7 1.15 7.31 7.31 0 0 1 .27 1.82h3.23a7.93 7.93 0 0 0 -.64-3.32 4.78 4.78 0 0 0 -4.64-2.5 5.09 5.09 0 0 0 -4.19 1.69c-.79 1-1.18 2.68-1.18 5.14v6.44a9.2 9.2 0 0 0 .95 4.84 5.87 5.87 0 0 0 9.06-.26 8.1 8.1 0 0 0 .84-3.94h-3.23a5.27 5.27 0 0 1 -.51 2.58m-12.6 3.33v-6.75l4.7-12.83h-3.72l-2.75 8.6-2.73-8.6h-3.73l4.73 12.83v6.75zm-18.84-2.3c.85 1.73 2.43 2.6 4.77 2.6a5.07 5.07 0 0 0 4.21-1.68 6.44 6.44 0 0 0 1.22-4.19 8.29 8.29 0 0 0 -.35-2.6 3.84 3.84 0 0 0 -1.12-1.65 5.16 5.16 0 0 0 -1.07-.7c-.37-.17-1-.43-2-.78a4.7 4.7 0 0 1 -2-1.13 2.65 2.65 0 0 1 -.56-1.79c0-1.81.57-2.71 1.69-2.71a1.37 1.37 0 0 1 1.29.65 6 6 0 0 1 .47 2.35h3.22a7.92 7.92 0 0 0 -.6-3.33 5.29 5.29 0 0 0 -8.25-1 6.52 6.52 0 0 0 -1.18 4.14 5.66 5.66 0 0 0 1.15 3.8 6.71 6.71 0 0 0 3 1.81q1.4.48 1.74.63a2.37 2.37 0 0 1 .65.48 2.84 2.84 0 0 1 .56 1.95 3.87 3.87 0 0 1 -.5 2.22 1.91 1.91 0 0 1 -1.63.68 1.74 1.74 0 0 1 -1.59-.77 5.27 5.27 0 0 1 -.51-2.58h-3.27a8.91 8.91 0 0 0 .62 3.61m-9.11-14.46h1.3a1.76 1.76 0 0 1 1.61.67 5 5 0 0 1 .58 2.63 5.86 5.86 0 0 1 -.45 2.7 1.81 1.81 0 0 1 -1.72.8h-1.29zm1.29 9.65a8.84 8.84 0 0 0 2.62-.31 3.7 3.7 0 0 0 1.66-1q1.41-1.53 1.41-4.92 0-4.59-2.71-5.77a7.89 7.89 0 0 0 -3-.44h-4.71v19.54h3.53v-7.1zm-21.66 4.8q1.27 2.6 4.77 2.6a5.11 5.11 0 0 0 4.22-1.68 6.49 6.49 0 0 0 1.22-4.19 8 8 0 0 0 -.36-2.6 3.84 3.84 0 0 0 -1.12-1.65 4.91 4.91 0 0 0 -1.07-.7c-.37-.17-1-.43-2-.78a4.76 4.76 0 0 1 -2-1.13 2.64 2.64 0 0 1 -.55-1.79c0-1.81.56-2.71 1.68-2.71a1.37 1.37 0 0 1 1.29.65 5.78 5.78 0 0 1 .47 2.35h3.23a8.06 8.06 0 0 0 -.61-3.33 5.29 5.29 0 0 0 -8.25-1 6.52 6.52 0 0 0 -1.17 4.14 5.6 5.6 0 0 0 1.11 3.79 6.6 6.6 0 0 0 3 1.81c.93.32 1.5.53 1.73.63a2.23 2.23 0 0 1 .65.48 2.79 2.79 0 0 1 .62 1.95 3.79 3.79 0 0 1 -.5 2.22 1.9 1.9 0 0 1 -1.63.68 1.71 1.71 0 0 1 -1.58-.77 5.14 5.14 0 0 1 -.52-2.58h-3.25a9.09 9.09 0 0 0 .62 3.61m-13.91-3.81a15.4 15.4 0 0 0 .18 2.78 4.51 4.51 0 0 0 1.74 2.71 6 6 0 0 0 3.61.9 6.34 6.34 0 0 0 3.61-.9 4.2 4.2 0 0 0 1.72-2.71 15.4 15.4 0 0 0 .18-2.78v-13.47h-3.53v13.47a10.87 10.87 0 0 1 -.13 2 2.22 2.22 0 0 1 -.49 1.06 1.83 1.83 0 0 1 -1.44.47 1.63 1.63 0 0 1 -1.68-1.09 7.56 7.56 0 0 1 -.26-2.44v-13.47h-3.51zm-3.08-13.47h-3.54v19.58h3.54zm-17.78 19.58h3.69l2.39-6.88 3 6.88h3.85l-4.4-9.82 4.18-9.76h-3.68l-2.13 6.21-2.76-6.21h-3.83l4.14 9.17zm-9.57-6.71 1.75-8.11 1.74 8.09zm5 6.71h3.81l-5.61-19.58h-3l-5.46 19.58h3.8l.84-3.9h4.73zm-22.32 0v-11.82l2.38 7.6h2.24l2.33-7.6v11.82h3.36v-19.58h-3.26l-3.61 10.63-3.59-10.63h-3.26v19.58z" fill="#fff"/></g></svg>