<?xml version="1.0" encoding="utf-8"?>
<!-- Generator: Adobe Illustrator 23.0.1, SVG Export Plug-In . SVG Version: 6.00 Build 0)  -->
<svg version="1.1" id="Layer_1" xmlns="http://www.w3.org/2000/svg" xmlns:xlink="http://www.w3.org/1999/xlink" x="0px" y="0px"
	 viewBox="0 0 23.2 44.8" style="enable-background:new 0 0 23.2 44.8;" xml:space="preserve">
<style type="text/css">
	.st0{fill:#BB0000;}
</style>
<title>logo2</title>
<g>
	<path class="st0" d="M9,25.9l2.6-5.6l2.6,5.5l-2.6,3.7L9,25.9z M5.4,8.4l4.4,4.1l-0.9,1.9l-3.5,7.4V8.4z M14.4,14.5l-0.9-1.9
		l4.4-4.1v13.5L14.4,14.5z M20.8,0l-9.1,8.5L2.5,0H1v22.4l2.5,3.6L0,33.6h5.5l1.4-2.9l2,2.9L1.1,44.8h5.5l5.1-7.3l5.1,7.3h5.5
		l-7.8-11.2l2-2.9l1.4,2.9h5.5l-3.5-7.6l2.5-3.6V0H20.8z"/>
</g>
</svg>
