<svg xmlns="http://www.w3.org/2000/svg" viewBox="0 0 105.16 45.05">
  <defs>
    <style>
      .\33 4730a84-eff3-4800-836f-17c54b128926 {
        fill: #b00;
      }

      .\37 168af80-e8e6-4e93-8803-7cadcdd862b3 {
        fill: #fff;
      }
    </style>
  </defs>
  <title>logo2</title>
  <g id="3ccf49fa-b79e-46ce-b407-4c4f50a8a164" data-name="Layer 2">
    <g id="44eaa985-625e-471c-8f78-db4dc9fc9a36" data-name="Red on White">
      <g>
        <path class="34730a84-eff3-4800-836f-17c54b128926" d="M9,25.94l2.6-5.55,2.59,5.55-2.59,3.71ZM5.42,8.42,9.8,12.55,8.89,14.5,5.42,21.94Zm9,6.08-.91-1.95,4.38-4.13V21.94ZM20.79,0,11.64,8.53,2.49,0H1.05V22.38l2.51,3.56L0,33.57H5.49l1.36-2.92,2,2.92L1.05,44.75h5.5l5.09-7.26,5.08,7.26h5.5L14.38,33.57l2-2.92,1.36,2.92h5.49l-3.55-7.63,2.5-3.56V0Z"/>
        <path class="7168af80-e8e6-4e93-8803-7cadcdd862b3" d="M83.35,44.75V36.34h3.82v8.41H90.7V25.17H87.17v8.27H83.35V25.17H79.81V44.75ZM73.7,41.43a1.76,1.76,0,0,1-1.59.77A1.63,1.63,0,0,1,70.42,41a11,11,0,0,1-.29-3V32a9.08,9.08,0,0,1,.41-3.32,1.5,1.5,0,0,1,1.51-.89A1.65,1.65,0,0,1,73.75,29,8.05,8.05,0,0,1,74,30.79h3.23a7.89,7.89,0,0,0-.63-3.35A4.77,4.77,0,0,0,72,24.93a5.12,5.12,0,0,0-4.19,1.69c-.78,1-1.18,2.68-1.18,5.14v6.45a9,9,0,0,0,1,4.83,5,5,0,0,0,4.47,2,5,5,0,0,0,4.58-2.26,8,8,0,0,0,.84-3.94H74.21a5.22,5.22,0,0,1-.51,2.58M61.1,44.75V38l4.7-12.83H62.08l-2.74,8.6-2.75-8.6H52.87L57.57,38v6.75Zm-18.84-2.3Q43.54,45,47,45.05a5.13,5.13,0,0,0,4.22-1.67,6.51,6.51,0,0,0,1.22-4.2,7.92,7.92,0,0,0-.36-2.59A3.84,3.84,0,0,0,51,34.9a5,5,0,0,0-1.07-.71c-.37-.17-1-.43-2-.78a4.76,4.76,0,0,1-2-1.13,2.63,2.63,0,0,1-.55-1.79q0-2.7,1.68-2.7a1.35,1.35,0,0,1,1.29.65,5.7,5.7,0,0,1,.47,2.35H52a8.07,8.07,0,0,0-.61-3.34,4.55,4.55,0,0,0-4.48-2.52,4.52,4.52,0,0,0-3.77,1.56A6.5,6.5,0,0,0,42,30.63a5.6,5.6,0,0,0,1.15,3.8,6.69,6.69,0,0,0,3,1.81c.93.31,1.5.52,1.73.63a1.92,1.92,0,0,1,.65.48,2.76,2.76,0,0,1,.56,1.94,3.75,3.75,0,0,1-.5,2.22A1.88,1.88,0,0,1,47,42.2a1.73,1.73,0,0,1-1.58-.77,5.2,5.2,0,0,1-.52-2.58H41.64a9,9,0,0,0,.62,3.6M33.11,28h1.3a1.76,1.76,0,0,1,1.61.67,4.9,4.9,0,0,1,.55,2.64A6,6,0,0,1,36.13,34a1.81,1.81,0,0,1-1.73.8H33.11Zm1.29,9.66A9.14,9.14,0,0,0,37,37.35a3.67,3.67,0,0,0,1.66-1.05q1.41-1.52,1.41-4.91c0-3.06-.9-5-2.7-5.77a7.72,7.72,0,0,0-3-.45H29.67V44.75h3.54V37.66ZM95,17.52q1.27,2.6,4.77,2.6a5.1,5.1,0,0,0,4.22-1.68,6.49,6.49,0,0,0,1.22-4.19,8,8,0,0,0-.36-2.6A3.76,3.76,0,0,0,103.68,10a4.68,4.68,0,0,0-1.07-.7c-.36-.17-1-.43-2-.78a4.72,4.72,0,0,1-2-1.13A2.6,2.6,0,0,1,98,5.56c0-1.81.56-2.71,1.69-2.71A1.37,1.37,0,0,1,101,3.5a5.78,5.78,0,0,1,.47,2.35h3.23a8.25,8.25,0,0,0-.6-3.33A4.56,4.56,0,0,0,99.6,0a4.51,4.51,0,0,0-3.76,1.55,6.46,6.46,0,0,0-1.18,4.14,5.6,5.6,0,0,0,1.15,3.8,6.6,6.6,0,0,0,3,1.81c.93.32,1.51.53,1.73.63a2.23,2.23,0,0,1,.65.48,2.79,2.79,0,0,1,.57,1.95,3.79,3.79,0,0,1-.51,2.22,1.88,1.88,0,0,1-1.62.68,1.72,1.72,0,0,1-1.59-.77,5.14,5.14,0,0,1-.52-2.58H94.34A8.94,8.94,0,0,0,95,17.52M81,13.71a14.33,14.33,0,0,0,.19,2.78A4.42,4.42,0,0,0,83,19.2a6,6,0,0,0,3.6.9,6.32,6.32,0,0,0,3.61-.9,4.2,4.2,0,0,0,1.72-2.71,15.19,15.19,0,0,0,.19-2.78V.24H88.55V13.71a10.87,10.87,0,0,1-.13,2,2.13,2.13,0,0,1-.49,1.06,1.81,1.81,0,0,1-1.44.47,1.63,1.63,0,0,1-1.66-1.1,7.56,7.56,0,0,1-.26-2.44V.24H81ZM78,.24H74.42V19.82H78ZM60.19,19.82h3.68l2.4-6.88,3,6.88h3.84L68.72,10,72.9.24H69.21L67.08,6.45,64.32.24H60.49l4.14,9.17Zm-9.58-6.71L52.36,5l1.75,8.09Zm5,6.71h3.8L53.84.24h-3L45.35,19.82h3.8l.84-3.9h4.73Zm-22.33,0V8l2.38,7.6h2.24L40.24,8V19.82h3.37V.24H40.34l-3.6,10.63L33.15.24H29.88V19.82Z"/>
      </g>
    </g>
  </g>
</svg>
